<svg width="763" height="73" viewBox="0 0 763 73" fill="none" xmlns="http://www.w3.org/2000/svg">
<g clip-path="url(#clip0_184_41)" filter="url(#filter0_d_184_41)">
<path d="M7.71056 31.6302C7.74658 31.5221 8.19689 30.6215 8.86335 30.0451C9.33168 29.6128 9.9441 29.3246 10.6466 29.3246C11.3671 29.3246 11.6193 29.865 11.6193 30.5855C11.6193 31.6122 10.8807 33.6656 10.5205 34.6383C10.3584 35.0706 10.2683 35.3047 10.2683 35.629C10.2683 36.4395 10.8267 37.088 11.6913 37.088C13.3665 37.088 13.9969 34.4401 13.9969 34.3321C13.9969 34.242 13.9249 34.17 13.8168 34.17C13.6547 34.17 13.6367 34.224 13.5466 34.5302C13.1323 36.0072 12.4478 36.7277 11.7453 36.7277C11.5652 36.7277 11.277 36.7097 11.277 36.1333C11.277 35.683 11.4752 35.1426 11.5832 34.8905C11.9435 33.8998 12.7 31.8824 12.7 30.8557C12.7 29.7749 12.0696 28.9644 10.7006 28.9644C9.09752 28.9644 8.25093 30.0991 7.92671 30.5495C7.87267 29.5227 7.13416 28.9644 6.34161 28.9644C5.76521 28.9644 5.36894 29.3066 5.06273 29.919C4.7385 30.5675 4.48633 31.6482 4.48633 31.7203C4.48633 31.7923 4.55838 31.8824 4.68446 31.8824C4.82856 31.8824 4.84658 31.8644 4.95465 31.4501C5.24285 30.3513 5.56708 29.3246 6.28757 29.3246C6.70186 29.3246 6.84596 29.6128 6.84596 30.1532C6.84596 30.5495 6.66583 31.2519 6.53975 31.8103L6.0354 33.7557C5.96335 34.0979 5.76521 34.9085 5.67515 35.2327C5.54906 35.701 5.35093 36.5476 5.35093 36.6377C5.35093 36.8898 5.54906 37.088 5.81925 37.088C6.0354 37.088 6.28757 36.9799 6.43167 36.7097C6.4677 36.6196 6.62981 35.9892 6.71987 35.629L7.11615 34.0078L7.71056 31.6302Z" fill="white"/>
<path d="M17.9865 32.4049C17.9865 31.8825 17.5542 31.4502 17.0318 31.4502C16.5094 31.4502 16.0771 31.8825 16.0771 32.4049C16.0771 32.9272 16.5094 33.3595 17.0318 33.3595C17.5542 33.3595 17.9865 32.9272 17.9865 32.4049Z" fill="white"/>
<path d="M26.268 32.5845C26.6643 32.5845 26.7723 32.5845 26.7723 32.3324C26.8084 19.7056 28.2674 9.22238 34.5717 0.414287C34.6978 0.252175 34.6978 0.216149 34.6978 0.180125C34.6978 -2.24511e-08 34.5717 0 34.2835 0C33.9953 0 33.9593 0 33.9233 0.0360259C33.8512 0.0900625 31.5636 2.71988 29.7444 6.34038C27.3667 11.0957 25.8717 16.5534 25.2052 23.11C25.1512 23.6684 24.7729 27.415 24.7729 31.6839V32.3864C24.791 32.5845 24.899 32.5845 25.2773 32.5845H26.268Z" fill="white"/>
<path d="M25.2773 32.2246C24.899 32.2246 24.791 32.2246 24.7729 32.4227V33.1252C24.7729 44.1308 26.7363 50.5793 27.2947 52.3986C28.5195 56.3973 30.5189 60.6122 33.527 64.3228C33.7972 64.647 33.8692 64.7371 33.9413 64.7731C33.9773 64.7911 33.9953 64.8091 34.2835 64.8091C34.5717 64.8091 34.6978 64.8091 34.6978 64.629C34.6978 64.593 34.6978 64.557 34.5897 64.3948C28.5916 56.0731 26.7903 46.0582 26.7723 32.4768C26.7723 32.2246 26.6643 32.2246 26.268 32.2246H25.2773Z" fill="white"/>
<path d="M42.0292 32.5845C42.4255 32.5845 42.5336 32.5845 42.5336 32.3324C42.5696 19.7056 44.0286 9.22238 50.333 0.414287C50.459 0.252175 50.459 0.216149 50.459 0.180125C50.459 -2.24511e-08 50.333 0 50.0448 0C49.7566 0 49.7205 0 49.6845 0.0360259C49.6125 0.0900625 47.3249 2.71988 45.5056 6.34038C43.128 11.0957 41.6329 16.5534 40.9665 23.11C40.9124 23.6684 40.5342 27.415 40.5342 31.6839V32.3864C40.5522 32.5845 40.6603 32.5845 41.0385 32.5845H42.0292Z" fill="white"/>
<path d="M41.0385 32.2246C40.6603 32.2246 40.5522 32.2246 40.5342 32.4227V33.1252C40.5342 44.1308 42.4975 50.5793 43.0559 52.3986C44.2808 56.3973 46.2802 60.6122 49.2882 64.3228C49.5584 64.647 49.6305 64.7371 49.7025 64.7731C49.7385 64.7911 49.7566 64.8091 50.0448 64.8091C50.333 64.8091 50.459 64.8091 50.459 64.629C50.459 64.593 50.459 64.557 50.351 64.3948C44.3528 56.0731 42.5516 46.0582 42.5336 32.4768C42.5336 32.2246 42.4255 32.2246 42.0292 32.2246H41.0385Z" fill="white"/>
<path d="M55.9889 14.2861C56.181 14.2861 56.4572 14.2861 56.4572 14.0099C56.4572 13.7338 56.181 13.7338 55.9889 13.7338H53.8034V2.73415C53.8034 2.54201 53.8034 2.27783 53.5272 2.27783C53.251 2.27783 53.251 2.54201 53.251 2.74616V13.8178C53.251 14.2261 53.311 14.2861 53.7193 14.2861H55.9889Z" fill="white"/>
<path d="M61.1642 3.25842C61.1191 2.57395 60.4887 2.40283 60.1464 2.40283C59.8042 2.40283 59.57 2.60998 59.4079 2.89818C59.1828 3.26743 59.0747 3.74476 59.0747 3.78079C59.0747 3.87985 59.1558 3.91588 59.2368 3.91588C59.3809 3.91588 59.3899 3.85283 59.435 3.70874C59.6151 2.98824 59.8312 2.70004 60.1194 2.70004C60.4437 2.70004 60.4437 3.06929 60.4437 3.15936C60.4437 3.30346 60.3536 3.6637 60.2905 3.91588C60.2275 4.15905 60.1374 4.5283 60.0924 4.72644C60.0294 4.9516 59.9753 5.18576 59.9123 5.41091C59.8492 5.66309 59.7412 6.1134 59.7412 6.16744C59.7412 6.36557 59.8943 6.46464 60.0564 6.46464C60.2185 6.46464 60.3716 6.35657 60.4437 6.22147C60.4617 6.16744 60.5427 5.85222 60.5878 5.67209L60.7859 4.86153C60.8489 4.62737 60.885 4.46526 60.939 4.25812C61.0201 3.9519 61.3353 3.47457 61.6685 3.14134C61.8486 2.97022 62.2359 2.70004 62.7222 2.70004C63.2986 2.70004 63.2986 3.15936 63.2986 3.33047C63.2986 3.86184 62.9114 4.82551 62.7492 5.23079C62.6952 5.38389 62.6322 5.52799 62.6322 5.6811C62.6322 6.14042 63.0465 6.46464 63.5418 6.46464C64.4514 6.46464 64.9017 5.27582 64.9017 5.07768C64.9017 5.05967 64.8927 4.9516 64.7306 4.9516C64.6045 4.9516 64.5955 4.99663 64.5415 5.16774C64.3974 5.64508 64.0281 6.16744 63.5688 6.16744C63.3977 6.16744 63.3256 6.03234 63.3256 5.84321C63.3256 5.66309 63.3887 5.50998 63.4697 5.32085C63.6048 4.96961 64.0101 3.9519 64.0101 3.44755C64.0101 2.70904 63.4517 2.40283 62.7673 2.40283C62.3169 2.40283 61.7406 2.54693 61.1642 3.25842Z" fill="white"/>
<path d="M65.4572 8.01172H58.5254V8.5521H65.4572V8.01172Z" fill="white"/>
<path d="M64.0846 14.3091H63.7514C63.7334 14.4352 63.6433 15.0296 63.5082 15.1287C63.4452 15.1827 62.7156 15.1827 62.5896 15.1827H60.9054L62.0582 14.2461C62.3644 14.0029 63.166 13.4265 63.4452 13.1563C63.7153 12.8861 64.0846 12.4268 64.0846 11.7874C64.0846 10.6616 63.0669 10.0042 61.8601 10.0042C60.6983 10.0042 59.8877 10.7697 59.8877 11.6163C59.8877 12.0756 60.275 12.1296 60.374 12.1296C60.5992 12.1296 60.8604 11.9675 60.8604 11.6433C60.8604 11.4451 60.7433 11.1569 60.347 11.1569C60.5542 10.6976 61.1035 10.3554 61.725 10.3554C62.6706 10.3554 63.175 11.0579 63.175 11.7874C63.175 12.4268 62.7517 13.0843 62.1212 13.6607L59.9868 15.615C59.8967 15.7051 59.8877 15.7141 59.8877 15.9933H63.8054L64.0846 14.3091Z" fill="white"/>
<path d="M70.717 2.73415C70.717 2.54201 70.717 2.27783 70.4408 2.27783C70.1646 2.27783 70.1646 2.54201 70.1646 2.74616V13.7338H67.9791C67.7869 13.7338 67.5107 13.7338 67.5107 14.0099C67.5107 14.2861 67.7869 14.2861 67.9791 14.2861H70.2606C70.6569 14.2861 70.717 14.2381 70.717 13.8298V2.73415Z" fill="white"/>
<path d="M81.3229 8.55824C81.515 8.55824 81.7792 8.55824 81.7792 8.28205C81.7792 8.00586 81.515 8.00586 81.3229 8.00586H74.4422C74.25 8.00586 73.9858 8.00586 73.9858 8.28205C73.9858 8.55824 74.25 8.55824 74.4422 8.55824H81.3229Z" fill="white"/>
<path d="M86.8513 14.2861C86.9473 14.2861 87.0914 14.2861 87.0914 14.142C87.0914 14.094 87.0794 14.082 86.9233 13.9259C85.2782 12.3768 84.8699 10.1433 84.8699 8.28198C84.8699 4.82359 86.2989 3.20247 86.9113 2.65009C87.0794 2.49398 87.0914 2.48197 87.0914 2.42193C87.0914 2.36189 87.0434 2.27783 86.9233 2.27783C86.7312 2.27783 86.1308 2.89026 86.0347 2.99833C84.4256 4.67949 84.0894 6.84099 84.0894 8.28198C84.0894 10.9718 85.2181 13.1333 86.8513 14.2861Z" fill="white"/>
<path d="M91.5851 3.63482C91.5851 3.31059 91.5611 3.29858 91.2369 3.29858C90.7445 3.77892 90.1081 4.06712 88.9673 4.06712V4.46339C89.2915 4.46339 89.94 4.46339 90.6364 4.13917V10.2994C90.6364 10.7437 90.6004 10.8878 89.4596 10.8878H89.0393V11.2841C89.5317 11.2481 90.5644 11.2481 91.1048 11.2481C91.6451 11.2481 92.6899 11.2481 93.1822 11.2841V10.8878H92.7619C91.6211 10.8878 91.5851 10.7437 91.5851 10.2994V3.63482Z" fill="white"/>
<path d="M102.588 8.55824C102.78 8.55824 103.044 8.55824 103.044 8.28205C103.044 8.00586 102.78 8.00586 102.588 8.00586H95.7073C95.5152 8.00586 95.251 8.00586 95.251 8.28205C95.251 8.55824 95.5152 8.55824 95.7073 8.55824H102.588Z" fill="white"/>
<path d="M106.519 9.31458C106.555 9.13446 106.676 8.67814 106.712 8.49802C106.88 7.84957 106.88 7.83756 107.156 7.44128C107.552 6.85288 108.117 6.32451 108.921 6.32451C109.353 6.32451 109.606 6.57669 109.606 7.14108C109.606 7.80153 109.101 9.17048 108.873 9.75889C108.717 10.1552 108.717 10.2272 108.717 10.3833C108.717 11.0678 109.281 11.404 109.798 11.404C110.975 11.404 111.467 9.72286 111.467 9.56675C111.467 9.44667 111.371 9.41065 111.287 9.41065C111.143 9.41065 111.119 9.4947 111.083 9.61479C110.794 10.5995 110.29 11.0678 109.834 11.0678C109.642 11.0678 109.546 10.9477 109.546 10.6715C109.546 10.3953 109.642 10.1311 109.762 9.83094C109.942 9.37462 110.47 7.99367 110.47 7.3212C110.47 6.42058 109.846 5.98828 108.981 5.98828C108.008 5.98828 107.384 6.57669 107.036 7.033C106.952 6.37255 106.423 5.98828 105.811 5.98828C105.379 5.98828 105.078 6.26447 104.886 6.63673C104.598 7.20112 104.478 7.80153 104.478 7.82555C104.478 7.93363 104.562 7.98166 104.658 7.98166C104.814 7.98166 104.826 7.93363 104.91 7.62141C105.054 7.033 105.271 6.32451 105.775 6.32451C106.087 6.32451 106.159 6.62472 106.159 6.8889C106.159 7.10505 106.099 7.33321 106.003 7.72948C105.979 7.82555 105.799 8.53404 105.751 8.70216L105.307 10.5034C105.259 10.6835 105.187 10.9837 105.187 11.0318C105.187 11.308 105.415 11.404 105.571 11.404C105.787 11.404 105.967 11.2599 106.051 11.1158C106.087 11.0438 106.183 10.6355 106.243 10.3833L106.519 9.31458Z" fill="white"/>
<path d="M125.491 7.64543C125.491 6.67275 125.07 5.98828 123.761 5.98828C122.657 5.98828 122.104 6.7448 121.912 7.09304C121.696 6.22845 121.012 5.98828 120.231 5.98828C119.066 5.98828 118.514 6.81685 118.358 7.14108H118.346V5.98828L116.604 6.12037V6.51665C117.421 6.51665 117.517 6.6007 117.517 7.18911V10.3473C117.517 10.8877 117.373 10.8877 116.604 10.8877V11.2839C117.121 11.2479 117.649 11.2479 117.973 11.2479C118.322 11.2479 118.826 11.2479 119.342 11.2839V10.8877C118.574 10.8877 118.43 10.8877 118.43 10.3473V8.17379C118.43 6.91292 119.378 6.32451 120.135 6.32451C120.915 6.32451 121.048 6.93694 121.048 7.59739V10.3473C121.048 10.8877 120.903 10.8877 120.135 10.8877V11.2839C120.651 11.2479 121.18 11.2479 121.504 11.2479C121.852 11.2479 122.356 11.2479 122.873 11.2839V10.8877C122.104 10.8877 121.96 10.8877 121.96 10.3473V8.17379C121.96 6.91292 122.909 6.32451 123.665 6.32451C124.446 6.32451 124.578 6.93694 124.578 7.59739V10.3473C124.578 10.8877 124.434 10.8877 123.665 10.8877V11.2839C124.182 11.2479 124.71 11.2479 125.034 11.2479C125.383 11.2479 125.887 11.2479 126.403 11.2839V10.8877C125.635 10.8877 125.491 10.8877 125.491 10.3473V7.64543Z" fill="white"/>
<path d="M132.749 8.72616C132.749 7.22512 131.512 5.92822 129.927 5.92822C128.342 5.92822 127.105 7.22512 127.105 8.72616C127.105 10.2272 128.39 11.404 129.927 11.404C131.476 11.404 132.749 10.2272 132.749 8.72616ZM129.927 11.0318C129.278 11.0318 128.774 10.7195 128.51 10.2992C128.21 9.8069 128.174 9.2185 128.174 8.61808C128.174 8.16177 128.174 7.44127 128.546 6.92491C128.858 6.50462 129.363 6.26446 129.927 6.26446C130.551 6.26446 131.068 6.56466 131.344 6.98495C131.668 7.4893 131.68 8.13775 131.68 8.61808C131.68 9.17046 131.656 9.83092 131.32 10.3353C130.996 10.8156 130.455 11.0318 129.927 11.0318Z" fill="white"/>
<path d="M137.429 3.08229V3.47856C138.246 3.47856 138.342 3.56262 138.342 4.15103V6.68478C137.922 6.22846 137.357 5.9883 136.733 5.9883C135.232 5.9883 133.899 7.1531 133.899 8.70217C133.899 10.1792 135.1 11.404 136.613 11.404C137.321 11.404 137.91 11.0678 138.306 10.6475V11.404L140.131 11.284V10.8877C139.315 10.8877 139.219 10.8036 139.219 10.2152V2.9502L137.429 3.08229ZM138.306 9.79493C138.306 10.0111 138.306 10.0591 138.126 10.2993C137.79 10.7796 137.237 11.0678 136.673 11.0678C136.12 11.0678 135.64 10.7796 135.352 10.3353C135.028 9.86698 134.968 9.27857 134.968 8.71418C134.968 8.0177 135.076 7.52536 135.352 7.10507C135.64 6.66076 136.181 6.32453 136.793 6.32453C137.369 6.32453 137.946 6.61273 138.306 7.23716V9.79493Z" fill="white"/>
<path d="M148.206 8.83441C148.399 8.65429 148.903 8.25801 149.095 8.0899C149.84 7.40542 150.548 6.74497 150.548 5.65221C150.548 4.22322 149.347 3.29858 147.846 3.29858C146.405 3.29858 145.457 4.39134 145.457 5.46008C145.457 6.04849 145.925 6.13254 146.093 6.13254C146.345 6.13254 146.717 5.95242 146.717 5.4961C146.717 4.87167 146.117 4.87167 145.973 4.87167C146.321 3.99507 147.126 3.69486 147.714 3.69486C148.831 3.69486 149.407 4.64351 149.407 5.65221C149.407 6.90108 148.531 7.81371 147.114 9.26671L145.601 10.8278C145.457 10.9599 145.457 10.9839 145.457 11.2841H150.2L150.548 9.13462H150.176C150.14 9.37479 150.044 9.9752 149.9 10.2034C149.828 10.2994 148.915 10.2994 148.723 10.2994H146.585L148.206 8.83441Z" fill="white"/>
<path d="M154.91 8.28198C154.91 7.14119 154.718 5.77225 153.973 4.35527C153.385 3.2505 152.292 2.27783 152.076 2.27783C151.956 2.27783 151.92 2.36189 151.92 2.42193C151.92 2.46996 151.92 2.49398 152.064 2.63808C153.745 4.23518 154.129 6.43271 154.129 8.28198C154.129 11.7284 152.7 13.3615 152.088 13.9139C151.932 14.07 151.92 14.082 151.92 14.142C151.92 14.2021 151.956 14.2861 152.076 14.2861C152.268 14.2861 152.869 13.6737 152.965 13.5656C154.574 11.8845 154.91 9.72298 154.91 8.28198Z" fill="white"/>
<path d="M113.402 45.0133L115.582 39.2494H115.131C114.429 41.1226 112.519 42.3475 110.448 42.8879C110.07 42.9779 108.304 43.4463 104.846 43.4463H93.9846L103.153 32.6928C103.279 32.5487 103.315 32.4947 103.315 32.4046C103.315 32.3686 103.315 32.3146 103.189 32.1344L94.7951 20.6605H104.666C107.08 20.6605 108.719 20.9127 108.881 20.9487C109.854 21.0928 111.421 21.399 112.844 22.2996C113.294 22.5878 114.519 23.3984 115.131 24.8574H115.582L113.402 19.7959H92.1113C91.697 19.7959 91.679 19.8139 91.6249 19.922C91.6069 19.976 91.6069 20.3183 91.6069 20.5164L101.136 33.5574L91.8051 44.491C91.6249 44.7071 91.6249 44.7972 91.6249 44.8152C91.6249 45.0133 91.7871 45.0133 92.1113 45.0133H113.402Z" fill="white"/>
<path d="M96.8623 50.2622C96.8623 49.998 96.6701 49.8059 96.3939 49.8059C96.0817 49.8059 95.7335 50.0941 95.7335 50.4544C95.7335 50.7185 95.9256 50.9107 96.2018 50.9107C96.514 50.9107 96.8623 50.6225 96.8623 50.2622ZM95.1091 54.6693L94.4606 56.3264C94.4006 56.5065 94.3405 56.6506 94.3405 56.8548C94.3405 57.4432 94.7968 57.8755 95.4333 57.8755C96.5981 57.8755 97.0904 56.1943 97.0904 56.0382C97.0904 55.9181 96.9944 55.8821 96.9103 55.8821C96.7662 55.8821 96.7422 55.9662 96.7062 56.0863C96.43 57.0469 95.9376 57.5393 95.4573 57.5393C95.3132 57.5393 95.1691 57.4792 95.1691 57.155C95.1691 56.8668 95.2532 56.6506 95.4093 56.2784C95.5293 55.9542 95.6494 55.6299 95.7815 55.3057L96.1538 54.333C96.2619 54.0568 96.406 53.6846 96.406 53.4804C96.406 52.88 95.9256 52.4597 95.3132 52.4597C94.1484 52.4597 93.644 54.1409 93.644 54.297C93.644 54.4051 93.7281 54.4531 93.8242 54.4531C93.9803 54.4531 93.9923 54.3811 94.0283 54.261C94.3645 53.1202 94.9169 52.796 95.2772 52.796C95.4453 52.796 95.5654 52.856 95.5654 53.1922C95.5654 53.3123 95.5534 53.4804 95.4333 53.8407L95.1091 54.6693Z" fill="white"/>
<path d="M106.406 53.7567C106.586 53.7567 106.826 53.7567 106.826 53.4805C106.826 53.2043 106.538 53.2043 106.358 53.2043H98.8047C98.6246 53.2043 98.3364 53.2043 98.3364 53.4805C98.3364 53.7567 98.5766 53.7567 98.7567 53.7567H106.406ZM106.358 56.3025C106.538 56.3025 106.826 56.3025 106.826 56.0263C106.826 55.7501 106.586 55.7501 106.406 55.7501H98.7567C98.5766 55.7501 98.3364 55.7501 98.3364 56.0263C98.3364 56.3025 98.6246 56.3025 98.8047 56.3025H106.358Z" fill="white"/>
<path d="M111.322 50.1063C111.322 49.782 111.298 49.77 110.974 49.77C110.481 50.2504 109.845 50.5386 108.704 50.5386V50.9348C109.028 50.9348 109.677 50.9348 110.373 50.6106V56.7709C110.373 57.2152 110.337 57.3593 109.196 57.3593H108.776V57.7555C109.268 57.7195 110.301 57.7195 110.842 57.7195C111.382 57.7195 112.427 57.7195 112.919 57.7555V57.3593H112.499C111.358 57.3593 111.322 57.2152 111.322 56.7709V50.1063Z" fill="white"/>
<path d="M165.427 6.89894C165.427 6.63476 165.235 6.44263 164.959 6.44263C164.647 6.44263 164.298 6.73083 164.298 7.09108C164.298 7.35526 164.491 7.54739 164.767 7.54739C165.079 7.54739 165.427 7.25919 165.427 6.89894ZM163.674 11.306L163.026 12.9631C162.966 13.1433 162.905 13.2874 162.905 13.4915C162.905 14.0799 163.362 14.5122 163.998 14.5122C165.163 14.5122 165.655 12.831 165.655 12.6749C165.655 12.5549 165.559 12.5188 165.475 12.5188C165.331 12.5188 165.307 12.6029 165.271 12.723C164.995 13.6836 164.503 14.176 164.022 14.176C163.878 14.176 163.734 14.1159 163.734 13.7917C163.734 13.5035 163.818 13.2874 163.974 12.9151C164.094 12.5909 164.214 12.2667 164.346 11.9424L164.719 10.9698C164.827 10.6936 164.971 10.3213 164.971 10.1172C164.971 9.51675 164.491 9.09646 163.878 9.09646C162.713 9.09646 162.209 10.7776 162.209 10.9337C162.209 11.0418 162.293 11.0898 162.389 11.0898C162.545 11.0898 162.557 11.0178 162.593 10.8977C162.929 9.75692 163.482 9.43269 163.842 9.43269C164.01 9.43269 164.13 9.49274 164.13 9.82897C164.13 9.94905 164.118 10.1172 163.998 10.4774L163.674 11.306Z" fill="white"/>
<path d="M174.587 11.6664C174.779 11.6664 175.043 11.6664 175.043 11.3902C175.043 11.114 174.779 11.114 174.587 11.114H167.706C167.514 11.114 167.25 11.114 167.25 11.3902C167.25 11.6664 167.514 11.6664 167.706 11.6664H174.587Z" fill="white"/>
<path d="M179.887 6.74297C179.887 6.41875 179.863 6.40674 179.539 6.40674C179.046 6.88707 178.41 7.17527 177.269 7.17527V7.57154C177.593 7.57154 178.242 7.57154 178.938 7.24732V13.4076C178.938 13.8519 178.902 13.996 177.761 13.996H177.341V14.3923C177.833 14.3562 178.866 14.3562 179.407 14.3562C179.947 14.3562 180.992 14.3562 181.484 14.3923V13.996H181.064C179.923 13.996 179.887 13.8519 179.887 13.4076V6.74297Z" fill="white"/>
<path d="M181.967 45.0133L184.146 39.2494H183.696C182.994 41.1226 181.084 42.3475 179.013 42.8879C178.635 42.9779 176.869 43.4463 173.411 43.4463H162.55L171.718 32.6928C171.844 32.5487 171.88 32.4947 171.88 32.4046C171.88 32.3686 171.88 32.3146 171.754 32.1344L163.36 20.6605H173.231C175.645 20.6605 177.284 20.9127 177.446 20.9487C178.418 21.0928 179.986 21.399 181.409 22.2996C181.859 22.5878 183.084 23.3984 183.696 24.8574H184.146L181.967 19.7959H160.676C160.262 19.7959 160.244 19.8139 160.19 19.922C160.172 19.976 160.172 20.3183 160.172 20.5164L169.7 33.5574L160.37 44.491C160.19 44.7071 160.19 44.7972 160.19 44.8152C160.19 45.0133 160.352 45.0133 160.676 45.0133H181.967Z" fill="white"/>
<path d="M166.054 50.2622C166.054 50.0341 165.874 49.8059 165.586 49.8059C165.226 49.8059 164.914 50.1421 164.914 50.4544C164.914 50.6825 165.094 50.9107 165.382 50.9107C165.742 50.9107 166.054 50.5744 166.054 50.2622ZM163.545 58.3558C163.364 59.0883 162.776 59.8689 162.044 59.8689C161.851 59.8689 161.671 59.8208 161.647 59.8088C162.02 59.6287 162.068 59.3045 162.068 59.1964C162.068 58.9082 161.851 58.7521 161.599 58.7521C161.251 58.7521 160.927 59.0523 160.927 59.4486C160.927 59.9049 161.371 60.2051 162.056 60.2051C162.788 60.2051 164.109 59.7488 164.469 58.3078L165.55 54.0088C165.586 53.8647 165.61 53.7686 165.61 53.5885C165.61 52.9281 165.082 52.4597 164.385 52.4597C163.112 52.4597 162.368 54.1409 162.368 54.297C162.368 54.4051 162.452 54.4531 162.548 54.4531C162.68 54.4531 162.692 54.4171 162.776 54.237C163.136 53.4084 163.749 52.796 164.349 52.796C164.601 52.796 164.745 52.9641 164.745 53.3604C164.745 53.5285 164.709 53.6966 164.673 53.8647L163.545 58.3558Z" fill="white"/>
<path d="M175.725 53.7567C175.905 53.7567 176.145 53.7567 176.145 53.4805C176.145 53.2043 175.857 53.2043 175.677 53.2043H168.124C167.943 53.2043 167.655 53.2043 167.655 53.4805C167.655 53.7567 167.895 53.7567 168.076 53.7567H175.725ZM175.677 56.3025C175.857 56.3025 176.145 56.3025 176.145 56.0263C176.145 55.7501 175.905 55.7501 175.725 55.7501H168.076C167.895 55.7501 167.655 55.7501 167.655 56.0263C167.655 56.3025 167.943 56.3025 168.124 56.3025H175.677Z" fill="white"/>
<path d="M182.743 53.9249C182.743 52.64 182.61 51.8595 182.214 51.0909C181.686 50.0342 180.713 49.77 180.053 49.77C178.54 49.77 177.987 50.8988 177.819 51.235C177.387 52.1116 177.363 53.3005 177.363 53.9249C177.363 54.7174 177.399 55.9303 177.975 56.8909C178.528 57.7796 179.416 58.0077 180.053 58.0077C180.629 58.0077 181.662 57.8276 182.262 56.6388C182.706 55.7742 182.743 54.7054 182.743 53.9249ZM180.053 57.6715C179.644 57.6715 178.816 57.4793 178.564 56.2185C178.432 55.534 178.432 54.4052 178.432 53.7808C178.432 52.9522 178.432 52.1116 178.564 51.4512C178.816 50.2263 179.752 50.1063 180.053 50.1063C180.461 50.1063 181.29 50.3104 181.53 51.4032C181.674 52.0636 181.674 52.9642 181.674 53.7808C181.674 54.4893 181.674 55.57 181.53 56.2425C181.277 57.5034 180.449 57.6715 180.053 57.6715Z" fill="white"/>
<path d="M200.792 53.8213C200.792 53.7493 200.756 53.7132 200.72 53.6592C200.054 52.9927 198.847 51.7859 197.64 49.8405C194.74 45.1933 193.425 39.3393 193.425 32.4045C193.425 27.5591 194.074 21.3088 197.046 15.9411C198.469 13.3833 199.946 11.9063 200.738 11.1138C200.792 11.0597 200.792 11.0237 200.792 10.9697C200.792 10.7896 200.666 10.7896 200.414 10.7896C200.162 10.7896 200.126 10.7896 199.856 11.0597C193.821 16.5535 191.93 24.8032 191.93 32.3865C191.93 39.4654 193.551 46.5983 198.126 51.984C198.487 52.3983 199.171 53.1368 199.91 53.7853C200.126 54.0014 200.162 54.0014 200.414 54.0014C200.666 54.0014 200.792 54.0014 200.792 53.8213Z" fill="white"/>
<path d="M206.54 22.1466C206.54 22.0565 206.468 21.9845 206.36 21.9845C206.198 21.9845 206.18 22.0385 206.09 22.3447C205.622 23.9839 204.883 24.5422 204.289 24.5422C204.073 24.5422 203.821 24.4882 203.821 23.9478C203.821 23.4615 204.037 22.9211 204.235 22.3807L205.496 19.0304C205.55 18.8863 205.676 18.5621 205.676 18.2199C205.676 17.4633 205.135 16.7789 204.253 16.7789C202.596 16.7789 201.929 19.3907 201.929 19.5348C201.929 19.6068 202.001 19.6969 202.127 19.6969C202.289 19.6969 202.307 19.6248 202.38 19.3727C202.812 17.8596 203.496 17.1391 204.199 17.1391C204.361 17.1391 204.667 17.1571 204.667 17.7335C204.667 18.2019 204.433 18.7963 204.289 19.1925L203.028 22.5429C202.92 22.8311 202.812 23.1193 202.812 23.4435C202.812 24.254 203.37 24.9025 204.235 24.9025C205.892 24.9025 206.54 22.2727 206.54 22.1466ZM206.396 13.4826C206.396 13.2124 206.18 12.8882 205.784 12.8882C205.37 12.8882 204.901 13.2845 204.901 13.7528C204.901 14.2031 205.28 14.3472 205.496 14.3472C205.982 14.3472 206.396 13.8789 206.396 13.4826Z" fill="white"/>
<path d="M223.332 20.5794C223.638 20.5794 223.963 20.5794 223.963 20.2191C223.963 19.8589 223.638 19.8589 223.332 19.8589H213.587C213.281 19.8589 212.957 19.8589 212.957 20.2191C212.957 20.5794 213.281 20.5794 213.587 20.5794H223.332Z" fill="white"/>
<path d="M234.662 13.1762C234.662 12.7619 234.662 12.7439 234.302 12.7439C233.87 13.2302 232.969 13.8967 231.114 13.8967V14.4191C231.528 14.4191 232.429 14.4191 233.419 13.9507V23.3352C233.419 23.9837 233.365 24.1998 231.78 24.1998H231.222V24.7222C231.708 24.6862 233.455 24.6862 234.05 24.6862C234.644 24.6862 236.373 24.6862 236.86 24.7222V24.1998H236.301C234.716 24.1998 234.662 23.9837 234.662 23.3352V13.1762Z" fill="white"/>
<path d="M222.017 43.5537C222.089 43.2655 222.089 43.0133 222.089 42.9413C222.089 41.8965 221.315 41.3201 220.504 41.3201C218.685 41.3201 217.712 43.95 217.712 44.076C217.712 44.1661 217.784 44.2382 217.892 44.2382C218.036 44.2382 218.054 44.1661 218.144 43.986C218.865 42.2388 219.765 41.6804 220.45 41.6804C220.828 41.6804 221.026 41.8785 221.026 42.509C221.026 42.9413 220.972 43.1214 220.9 43.4456L219.189 50.2363C218.847 51.5692 218 52.5779 217.01 52.5779C216.938 52.5779 216.559 52.5779 216.217 52.3978C216.649 52.3077 216.992 51.9655 216.992 51.5332C216.992 51.245 216.775 50.9568 216.379 50.9568C215.911 50.9568 215.479 51.3531 215.479 51.8934C215.479 52.632 216.271 52.9382 217.01 52.9382C218.252 52.9382 219.892 52.0195 220.342 50.2183L222.017 43.5537ZM222.756 38.0239C222.756 37.5735 222.377 37.4294 222.161 37.4294C221.675 37.4294 221.261 37.8978 221.261 38.294C221.261 38.5642 221.477 38.8885 221.873 38.8885C222.287 38.8885 222.756 38.4922 222.756 38.0239Z" fill="white"/>
<path d="M247.785 32.4045C247.785 25.3256 246.164 18.1927 241.589 12.8069C241.229 12.3927 240.544 11.6541 239.806 11.0057C239.59 10.7896 239.554 10.7896 239.302 10.7896C239.085 10.7896 238.923 10.7896 238.923 10.9697C238.923 11.0417 238.995 11.1138 239.031 11.1498C239.662 11.7982 240.869 13.0051 242.076 14.9504C244.976 19.5976 246.29 25.4517 246.29 32.3865C246.29 37.2318 245.642 43.4822 242.67 48.8499C241.247 51.4076 239.752 52.9027 238.995 53.6592C238.959 53.7132 238.923 53.7673 238.923 53.8213C238.923 54.0014 239.085 54.0014 239.302 54.0014C239.554 54.0014 239.59 54.0014 239.86 53.7312C245.894 48.2374 247.785 39.9877 247.785 32.4045Z" fill="white"/>
<path d="M259.013 32.4049C259.013 31.8825 258.581 31.4502 258.059 31.4502C257.536 31.4502 257.104 31.8825 257.104 32.4049C257.104 32.9272 257.536 33.3595 258.059 33.3595C258.581 33.3595 259.013 32.9272 259.013 32.4049Z" fill="white"/>
<path d="M270.415 41.2848C270.415 41.2308 270.415 41.1947 270.109 40.8885C268.308 39.0693 267.299 36.0972 267.299 32.4227C267.299 28.9283 268.146 25.9202 270.235 23.7947C270.415 23.6326 270.415 23.5966 270.415 23.5425C270.415 23.4345 270.325 23.3984 270.253 23.3984C270.019 23.3984 268.542 24.6953 267.66 26.4606C266.741 28.2798 266.327 30.2071 266.327 32.4227C266.327 34.0258 266.579 36.1693 267.515 38.0966C268.578 40.2581 270.055 41.4289 270.253 41.4289C270.325 41.4289 270.415 41.3929 270.415 41.2848Z" fill="white"/>
<path d="M275.13 31.6302C275.167 31.5221 275.617 30.6215 276.283 30.0451C276.752 29.6128 277.364 29.3246 278.067 29.3246C278.787 29.3246 279.039 29.865 279.039 30.5855C279.039 31.6122 278.301 33.6656 277.94 34.6383C277.778 35.0706 277.688 35.3047 277.688 35.629C277.688 36.4395 278.247 37.088 279.111 37.088C280.786 37.088 281.417 34.4401 281.417 34.3321C281.417 34.242 281.345 34.17 281.237 34.17C281.075 34.17 281.057 34.224 280.967 34.5302C280.552 36.0072 279.868 36.7277 279.165 36.7277C278.985 36.7277 278.697 36.7097 278.697 36.1333C278.697 35.683 278.895 35.1426 279.003 34.8905C279.363 33.8998 280.12 31.8824 280.12 30.8557C280.12 29.7749 279.489 28.9644 278.121 28.9644C276.517 28.9644 275.671 30.0991 275.347 30.5495C275.293 29.5227 274.554 28.9644 273.762 28.9644C273.185 28.9644 272.789 29.3066 272.483 29.919C272.158 30.5675 271.906 31.6482 271.906 31.7203C271.906 31.7923 271.978 31.8824 272.104 31.8824C272.248 31.8824 272.266 31.8644 272.375 31.4501C272.663 30.3513 272.987 29.3246 273.707 29.3246C274.122 29.3246 274.266 29.6128 274.266 30.1532C274.266 30.5495 274.086 31.2519 273.96 31.8103L273.455 33.7557C273.383 34.0979 273.185 34.9085 273.095 35.2327C272.969 35.701 272.771 36.5476 272.771 36.6377C272.771 36.8898 272.969 37.088 273.239 37.088C273.455 37.088 273.707 36.9799 273.852 36.7097C273.888 36.6196 274.05 35.9892 274.14 35.629L274.536 34.0078L275.13 31.6302Z" fill="white"/>
<path d="M297.821 32.7649C298.127 32.7649 298.451 32.7649 298.451 32.4047C298.451 32.0444 298.127 32.0444 297.821 32.0444H288.076C287.77 32.0444 287.446 32.0444 287.446 32.4047C287.446 32.7649 287.77 32.7649 288.076 32.7649H297.821Z" fill="white"/>
<path d="M307.277 30.4415C306.971 30.4595 306.899 30.4775 306.899 30.6396C306.899 30.8198 306.989 30.8198 307.313 30.8198H308.142C309.673 30.8198 310.358 32.0806 310.358 33.8098C310.358 36.1695 309.133 36.7999 308.25 36.7999C307.386 36.7999 305.908 36.3856 305.386 35.1968C305.963 35.2868 306.485 34.9626 306.485 34.3142C306.485 33.7918 306.107 33.4316 305.602 33.4316C305.17 33.4316 304.702 33.6837 304.702 34.3682C304.702 35.9713 306.305 37.2862 308.304 37.2862C310.448 37.2862 312.033 35.6471 312.033 33.8278C312.033 32.1707 310.7 30.8738 308.971 30.5676C310.538 30.1173 311.546 28.8024 311.546 27.3974C311.546 25.9744 310.069 24.9297 308.322 24.9297C306.521 24.9297 305.188 26.0284 305.188 27.3434C305.188 28.0639 305.746 28.208 306.017 28.208C306.395 28.208 306.827 27.9378 306.827 27.3974C306.827 26.821 306.395 26.5688 305.999 26.5688C305.89 26.5688 305.854 26.5688 305.8 26.5868C306.485 25.362 308.178 25.362 308.268 25.362C308.863 25.362 310.033 25.6322 310.033 27.3974C310.033 27.7396 309.979 28.7483 309.457 29.5229C308.917 30.3154 308.304 30.3694 307.818 30.3875L307.277 30.4415Z" fill="white"/>
<path d="M328.654 32.7649C328.961 32.7649 329.285 32.7649 329.285 32.4047C329.285 32.0444 328.961 32.0444 328.654 32.0444H318.91C318.604 32.0444 318.279 32.0444 318.279 32.4047C318.279 32.7649 318.604 32.7649 318.91 32.7649H328.654Z" fill="white"/>
<path d="M341.101 31.198C341.173 30.9098 341.173 30.6576 341.173 30.5855C341.173 29.5408 340.399 28.9644 339.588 28.9644C337.769 28.9644 336.796 31.5942 336.796 31.7203C336.796 31.8104 336.868 31.8824 336.976 31.8824C337.12 31.8824 337.138 31.8104 337.228 31.6303C337.949 29.8831 338.849 29.3247 339.534 29.3247C339.912 29.3247 340.11 29.5228 340.11 30.1532C340.11 30.5855 340.056 30.7657 339.984 31.0899L338.273 37.8806C337.931 39.2135 337.084 40.2222 336.094 40.2222C336.022 40.2222 335.643 40.2222 335.301 40.0421C335.733 39.952 336.076 39.6098 336.076 39.1775C336.076 38.8893 335.859 38.6011 335.463 38.6011C334.995 38.6011 334.562 38.9974 334.562 39.5377C334.562 40.2762 335.355 40.5825 336.094 40.5825C337.336 40.5825 338.976 39.6638 339.426 37.8626L341.101 31.198ZM341.84 25.6681C341.84 25.2178 341.461 25.0737 341.245 25.0737C340.759 25.0737 340.344 25.5421 340.344 25.9383C340.344 26.2085 340.561 26.5327 340.957 26.5327C341.371 26.5327 341.84 26.1365 341.84 25.6681Z" fill="white"/>
<path d="M348.186 32.4227C348.186 31.0537 348.006 28.8202 346.998 26.7307C345.935 24.5692 344.458 23.3984 344.26 23.3984C344.188 23.3984 344.098 23.4345 344.098 23.5425C344.098 23.5966 344.098 23.6326 344.404 23.9388C346.205 25.7581 347.214 28.7301 347.214 32.4047C347.214 35.8991 346.367 38.9072 344.278 41.0326C344.098 41.1947 344.098 41.2308 344.098 41.2848C344.098 41.3929 344.188 41.4289 344.26 41.4289C344.494 41.4289 345.971 40.132 346.854 38.3668C347.772 36.5295 348.186 34.5842 348.186 32.4227Z" fill="white"/>
<path d="M353.28 24.8756C353.28 24.2992 352.794 24.0291 352.416 24.0291C352.037 24.0291 351.479 24.2812 351.533 25.0377L352.181 33.2875C352.199 33.5937 352.235 33.6657 352.398 33.6657C352.578 33.6657 352.614 33.6117 352.632 33.2875L353.28 24.8756ZM353.28 36.0253C353.28 35.557 352.884 35.1608 352.416 35.1608C351.911 35.1608 351.533 35.557 351.533 36.0434C351.533 36.5117 351.929 36.908 352.398 36.908C352.902 36.908 353.28 36.5117 353.28 36.0253Z" fill="white"/>
<path d="M362.326 32.4049C362.326 31.8825 361.894 31.4502 361.371 31.4502C360.849 31.4502 360.417 31.8825 360.417 32.4049C360.417 32.9272 360.849 33.3595 361.371 33.3595C361.894 33.3595 362.326 32.9272 362.326 32.4049Z" fill="white"/>
<path d="M373.728 41.2848C373.728 41.2308 373.728 41.1947 373.421 40.8885C371.62 39.0693 370.611 36.0972 370.611 32.4227C370.611 28.9283 371.458 25.9202 373.547 23.7947C373.728 23.6326 373.728 23.5966 373.728 23.5425C373.728 23.4345 373.637 23.3984 373.565 23.3984C373.331 23.3984 371.854 24.6953 370.972 26.4606C370.053 28.2798 369.639 30.2071 369.639 32.4227C369.639 34.0258 369.891 36.1693 370.827 38.0966C371.89 40.2581 373.367 41.4289 373.565 41.4289C373.637 41.4289 373.728 41.3929 373.728 41.2848Z" fill="white"/>
<path d="M379.83 34.3321C379.83 34.2421 379.758 34.17 379.65 34.17C379.488 34.17 379.47 34.2241 379.38 34.5303C378.911 36.1694 378.173 36.7278 377.578 36.7278C377.362 36.7278 377.11 36.6738 377.11 36.1334C377.11 35.647 377.326 35.1067 377.524 34.5663L378.785 31.216C378.839 31.0719 378.965 30.7477 378.965 30.4054C378.965 29.6489 378.425 28.9644 377.542 28.9644C375.885 28.9644 375.219 31.5762 375.219 31.7203C375.219 31.7924 375.291 31.8824 375.417 31.8824C375.579 31.8824 375.597 31.8104 375.669 31.5582C376.101 30.0452 376.786 29.3247 377.488 29.3247C377.65 29.3247 377.957 29.3427 377.957 29.9191C377.957 30.3874 377.722 30.9818 377.578 31.3781L376.318 34.7284C376.209 35.0166 376.101 35.3048 376.101 35.629C376.101 36.4396 376.66 37.088 377.524 37.088C379.181 37.088 379.83 34.4582 379.83 34.3321ZM379.686 25.6681C379.686 25.398 379.47 25.0737 379.073 25.0737C378.659 25.0737 378.191 25.47 378.191 25.9383C378.191 26.3886 378.569 26.5327 378.785 26.5327C379.272 26.5327 379.686 26.0644 379.686 25.6681Z" fill="white"/>
<path d="M391.939 32.747H396.91C397.163 32.747 397.487 32.747 397.487 32.4228C397.487 32.0806 397.181 32.0806 396.91 32.0806H391.939V27.1091C391.939 26.8569 391.939 26.5327 391.615 26.5327C391.272 26.5327 391.272 26.8389 391.272 27.1091V32.0806H386.301C386.049 32.0806 385.725 32.0806 385.725 32.4048C385.725 32.747 386.031 32.747 386.301 32.747H391.272V37.7184C391.272 37.9706 391.272 38.2948 391.597 38.2948C391.939 38.2948 391.939 37.9886 391.939 37.7184V32.747Z" fill="white"/>
<path d="M408.327 41.2848C408.327 41.2308 408.327 41.1947 408.02 40.8885C406.219 39.0693 405.21 36.0972 405.21 32.4227C405.21 28.9283 406.057 25.9202 408.146 23.7947C408.327 23.6326 408.327 23.5966 408.327 23.5425C408.327 23.4345 408.237 23.3984 408.165 23.3984C407.93 23.3984 406.453 24.6953 405.571 26.4606C404.652 28.2798 404.238 30.2071 404.238 32.4227C404.238 34.0258 404.49 36.1693 405.427 38.0966C406.489 40.2581 407.966 41.4289 408.165 41.4289C408.237 41.4289 408.327 41.3929 408.327 41.2848Z" fill="white"/>
<path d="M414.519 25.362C414.519 24.9477 414.519 24.9297 414.158 24.9297C413.726 25.416 412.825 26.0825 410.97 26.0825V26.6048C411.385 26.6048 412.285 26.6048 413.276 26.1365V35.521C413.276 36.1695 413.222 36.3856 411.637 36.3856H411.078V36.908C411.565 36.8719 413.312 36.8719 413.906 36.8719C414.501 36.8719 416.23 36.8719 416.716 36.908V36.3856H416.158C414.573 36.3856 414.519 36.1695 414.519 35.521V25.362Z" fill="white"/>
<path d="M434.023 32.7649C434.329 32.7649 434.653 32.7649 434.653 32.4047C434.653 32.0444 434.329 32.0444 434.023 32.0444H424.278C423.972 32.0444 423.647 32.0444 423.647 32.4047C423.647 32.7649 423.972 32.7649 424.278 32.7649H434.023Z" fill="white"/>
<path d="M445.263 34.3321C445.263 34.2421 445.191 34.17 445.082 34.17C444.92 34.17 444.902 34.2241 444.812 34.5303C444.344 36.1694 443.605 36.7278 443.011 36.7278C442.795 36.7278 442.543 36.6738 442.543 36.1334C442.543 35.647 442.759 35.1067 442.957 34.5663L444.218 31.216C444.272 31.0719 444.398 30.7477 444.398 30.4054C444.398 29.6489 443.858 28.9644 442.975 28.9644C441.318 28.9644 440.651 31.5762 440.651 31.7203C440.651 31.7924 440.723 31.8824 440.85 31.8824C441.012 31.8824 441.03 31.8104 441.102 31.5582C441.534 30.0452 442.218 29.3247 442.921 29.3247C443.083 29.3247 443.389 29.3427 443.389 29.9191C443.389 30.3874 443.155 30.9818 443.011 31.3781L441.75 34.7284C441.642 35.0166 441.534 35.3048 441.534 35.629C441.534 36.4396 442.092 37.088 442.957 37.088C444.614 37.088 445.263 34.4582 445.263 34.3321ZM445.118 25.6681C445.118 25.398 444.902 25.0737 444.506 25.0737C444.092 25.0737 443.623 25.47 443.623 25.9383C443.623 26.3886 444.002 26.5327 444.218 26.5327C444.704 26.5327 445.118 26.0644 445.118 25.6681Z" fill="white"/>
<path d="M464.976 32.5308C464.976 30.8557 464.976 30.3513 464.561 29.7749C464.039 29.0724 463.193 28.9644 462.58 28.9644C461.085 28.9644 460.329 30.0451 460.04 30.7476C459.788 29.3606 458.815 28.9644 457.681 28.9644C455.933 28.9644 455.249 30.4594 455.105 30.8196H455.087V28.9644L452.637 29.1625V29.6849C453.862 29.6849 454.006 29.8109 454.006 30.6936V35.5749C454.006 36.3855 453.808 36.3855 452.637 36.3855V36.9078C453.106 36.8718 454.078 36.8718 454.583 36.8718C455.105 36.8718 456.078 36.8718 456.546 36.9078V36.3855C455.393 36.3855 455.177 36.3855 455.177 35.5749V32.2246C455.177 30.3333 456.42 29.3246 457.537 29.3246C458.653 29.3246 458.906 30.2432 458.906 31.342V35.5749C458.906 36.3855 458.707 36.3855 457.537 36.3855V36.9078C458.005 36.8718 458.978 36.8718 459.482 36.8718C460.004 36.8718 460.977 36.8718 461.445 36.9078V36.3855C460.293 36.3855 460.076 36.3855 460.076 35.5749V32.2246C460.076 30.3333 461.319 29.3246 462.436 29.3246C463.553 29.3246 463.805 30.2432 463.805 31.342V35.5749C463.805 36.3855 463.607 36.3855 462.436 36.3855V36.9078C462.904 36.8718 463.877 36.8718 464.381 36.8718C464.904 36.8718 465.876 36.8718 466.345 36.9078V36.3855C465.444 36.3855 464.994 36.3855 464.976 35.8451V32.5308Z" fill="white"/>
<path d="M475.026 33.0532C475.026 30.7295 473.26 28.8743 471.171 28.8743C469.01 28.8743 467.298 30.7836 467.298 33.0532C467.298 35.3588 469.1 37.0879 471.153 37.0879C473.278 37.0879 475.026 35.3227 475.026 33.0532ZM471.171 36.6917C470.505 36.6917 469.694 36.4035 469.172 35.5209C468.685 34.7103 468.667 33.6476 468.667 32.891C468.667 32.2066 468.667 31.1078 469.226 30.2973C469.73 29.5227 470.523 29.2345 471.153 29.2345C471.855 29.2345 472.612 29.5587 473.098 30.2612C473.657 31.0898 473.657 32.2246 473.657 32.891C473.657 33.5215 473.657 34.6383 473.188 35.4848C472.684 36.3494 471.855 36.6917 471.171 36.6917Z" fill="white"/>
<path d="M481.471 24.6054V25.1277C482.695 25.1277 482.84 25.2538 482.84 26.1364V30.1172C482.461 29.5948 481.687 28.9644 480.588 28.9644C478.499 28.9644 476.697 30.7296 476.697 33.0352C476.697 35.3228 478.408 37.088 480.39 37.088C481.759 37.088 482.551 36.1874 482.803 35.8451V37.088L485.343 36.9079V36.3855C484.118 36.3855 483.974 36.2594 483.974 35.3768V24.4072L481.471 24.6054ZM482.803 34.8004C482.803 35.1246 482.803 35.1787 482.551 35.5749C482.119 36.2054 481.381 36.7277 480.48 36.7277C480.012 36.7277 478.066 36.5476 478.066 33.0532C478.066 31.7563 478.282 31.0358 478.679 30.4414C479.039 29.883 479.759 29.3246 480.66 29.3246C481.777 29.3246 482.407 30.1352 482.587 30.4234C482.803 30.7296 482.803 30.7656 482.803 31.0898V34.8004Z" fill="white"/>
<path d="M499.669 33.8819H499.273C499.219 34.1881 499.075 35.1788 498.895 35.467C498.769 35.6291 497.742 35.6291 497.202 35.6291H493.869C494.356 35.2148 495.454 34.062 495.923 33.6297C498.661 31.108 499.669 30.1713 499.669 28.3881C499.669 26.3166 498.03 24.9297 495.941 24.9297C493.851 24.9297 492.626 26.7129 492.626 28.262C492.626 29.1806 493.419 29.1806 493.473 29.1806C493.851 29.1806 494.32 28.9104 494.32 28.334C494.32 27.8297 493.977 27.4875 493.473 27.4875C493.311 27.4875 493.275 27.4875 493.221 27.5055C493.563 26.2806 494.536 25.452 495.707 25.452C497.238 25.452 498.174 26.7309 498.174 28.3881C498.174 29.9191 497.292 31.2521 496.265 32.4049L492.626 36.4757V36.908H499.201L499.669 33.8819Z" fill="white"/>
<path d="M505.642 32.4227C505.642 31.0537 505.462 28.8202 504.453 26.7307C503.39 24.5692 501.913 23.3984 501.715 23.3984C501.643 23.3984 501.553 23.4345 501.553 23.5425C501.553 23.5966 501.553 23.6326 501.859 23.9388C503.661 25.7581 504.669 28.7301 504.669 32.4047C504.669 35.8991 503.823 38.9072 501.733 41.0326C501.553 41.1947 501.553 41.2308 501.553 41.2848C501.553 41.3929 501.643 41.4289 501.715 41.4289C501.949 41.4289 503.427 40.132 504.309 38.3668C505.228 36.5295 505.642 34.5842 505.642 32.4227Z" fill="white"/>
<path d="M512.501 32.4227C512.501 31.0537 512.321 28.8202 511.312 26.7307C510.249 24.5692 508.772 23.3984 508.574 23.3984C508.502 23.3984 508.412 23.4345 508.412 23.5425C508.412 23.5966 508.412 23.6326 508.718 23.9388C510.52 25.7581 511.528 28.7301 511.528 32.4047C511.528 35.8991 510.682 38.9072 508.592 41.0326C508.412 41.1947 508.412 41.2308 508.412 41.2848C508.412 41.3929 508.502 41.4289 508.574 41.4289C508.808 41.4289 510.285 40.132 511.168 38.3668C512.087 36.5295 512.501 34.5842 512.501 32.4227Z" fill="white"/>
<path d="M524.781 31.6839C524.781 20.6783 522.818 14.2298 522.26 12.4106C521.035 8.41182 519.035 4.1969 516.027 0.486337C515.757 0.162113 515.685 0.0720503 515.613 0.0360259C515.577 0.0180137 515.559 0 515.271 0C515.001 0 514.856 -2.24511e-08 514.856 0.180125C514.856 0.216149 514.856 0.252175 515.091 0.576399C521.359 9.33045 522.764 20.1379 522.782 32.3324C522.782 32.5845 522.89 32.5845 523.286 32.5845H524.277C524.655 32.5845 524.763 32.5845 524.781 32.3864V31.6839Z" fill="white"/>
<path d="M524.781 32.4227C524.763 32.2246 524.655 32.2246 524.277 32.2246H523.286C522.89 32.2246 522.782 32.2246 522.782 32.4768C522.782 34.3321 522.764 38.619 522.296 43.1041C521.323 52.4166 518.927 58.865 514.983 64.3948C514.856 64.557 514.856 64.593 514.856 64.629C514.856 64.8091 515.001 64.8091 515.271 64.8091C515.559 64.8091 515.595 64.8091 515.631 64.7731C515.703 64.7191 517.991 62.0893 519.81 58.4688C522.188 53.7135 523.683 48.2557 524.349 41.6992C524.403 41.1408 524.781 37.3942 524.781 33.1252V32.4227Z" fill="white"/>
<path d="M541.231 32.747H546.202C546.455 32.747 546.779 32.747 546.779 32.4228C546.779 32.0806 546.473 32.0806 546.202 32.0806H541.231V27.1091C541.231 26.8569 541.231 26.5327 540.907 26.5327C540.564 26.5327 540.564 26.8389 540.564 27.1091V32.0806H535.593C535.341 32.0806 535.017 32.0806 535.017 32.4048C535.017 32.747 535.323 32.747 535.593 32.747H540.564V37.7184C540.564 37.9706 540.564 38.2948 540.889 38.2948C541.231 38.2948 541.231 37.9886 541.231 37.7184V32.747Z" fill="white"/>
<path d="M557.618 41.2848C557.618 41.2308 557.618 41.1947 557.312 40.8885C555.511 39.0693 554.502 36.0972 554.502 32.4227C554.502 28.9283 555.349 25.9202 557.438 23.7947C557.618 23.6326 557.618 23.5966 557.618 23.5425C557.618 23.4345 557.528 23.3984 557.456 23.3984C557.222 23.3984 555.745 24.6953 554.862 26.4606C553.944 28.2798 553.529 30.2071 553.529 32.4227C553.529 34.0258 553.781 36.1693 554.718 38.0966C555.781 40.2581 557.258 41.4289 557.456 41.4289C557.528 41.4289 557.618 41.3929 557.618 41.2848Z" fill="white"/>
<path d="M564.477 41.2848C564.477 41.2308 564.477 41.1947 564.171 40.8885C562.37 39.0693 561.361 36.0972 561.361 32.4227C561.361 28.9283 562.207 25.9202 564.297 23.7947C564.477 23.6326 564.477 23.5966 564.477 23.5425C564.477 23.4345 564.387 23.3984 564.315 23.3984C564.081 23.3984 562.604 24.6953 561.721 26.4606C560.802 28.2798 560.388 30.2071 560.388 32.4227C560.388 34.0258 560.64 36.1693 561.577 38.0966C562.64 40.2581 564.117 41.4289 564.315 41.4289C564.387 41.4289 564.477 41.3929 564.477 41.2848Z" fill="white"/>
<path d="M570.67 25.362C570.67 24.9477 570.67 24.9297 570.309 24.9297C569.877 25.416 568.976 26.0825 567.121 26.0825V26.6048C567.535 26.6048 568.436 26.6048 569.427 26.1365V35.521C569.427 36.1695 569.373 36.3856 567.788 36.3856H567.229V36.908C567.716 36.8719 569.463 36.8719 570.057 36.8719C570.652 36.8719 572.381 36.8719 572.867 36.908V36.3856H572.309C570.724 36.3856 570.67 36.1695 570.67 35.521V25.362Z" fill="white"/>
<path d="M590.173 32.7649C590.479 32.7649 590.803 32.7649 590.803 32.4047C590.803 32.0444 590.479 32.0444 590.173 32.0444H580.428C580.122 32.0444 579.798 32.0444 579.798 32.4047C579.798 32.7649 580.122 32.7649 580.428 32.7649H590.173Z" fill="white"/>
<path d="M600.026 31.6302C600.062 31.5221 600.512 30.6215 601.179 30.0451C601.647 29.6128 602.26 29.3246 602.962 29.3246C603.683 29.3246 603.935 29.865 603.935 30.5855C603.935 31.6122 603.196 33.6656 602.836 34.6383C602.674 35.0706 602.584 35.3047 602.584 35.629C602.584 36.4395 603.142 37.088 604.007 37.088C605.682 37.088 606.312 34.4401 606.312 34.3321C606.312 34.242 606.24 34.17 606.132 34.17C605.97 34.17 605.952 34.224 605.862 34.5302C605.448 36.0072 604.763 36.7277 604.061 36.7277C603.881 36.7277 603.592 36.7097 603.592 36.1333C603.592 35.683 603.791 35.1426 603.899 34.8905C604.259 33.8998 605.015 31.8824 605.015 30.8557C605.015 29.7749 604.385 28.9644 603.016 28.9644C601.413 28.9644 600.566 30.0991 600.242 30.5495C600.188 29.5227 599.45 28.9644 598.657 28.9644C598.081 28.9644 597.684 29.3066 597.378 29.919C597.054 30.5675 596.802 31.6482 596.802 31.7203C596.802 31.7923 596.874 31.8824 597 31.8824C597.144 31.8824 597.162 31.8644 597.27 31.4501C597.558 30.3513 597.883 29.3246 598.603 29.3246C599.017 29.3246 599.161 29.6128 599.161 30.1532C599.161 30.5495 598.981 31.2519 598.855 31.8103L598.351 33.7557C598.279 34.0979 598.081 34.9085 597.991 35.2327C597.864 35.701 597.666 36.5476 597.666 36.6377C597.666 36.8898 597.864 37.088 598.135 37.088C598.351 37.088 598.603 36.9799 598.747 36.7097C598.783 36.6196 598.945 35.9892 599.035 35.629L599.432 34.0078L600.026 31.6302Z" fill="white"/>
<path d="M625.637 32.5308C625.637 30.8557 625.637 30.3513 625.223 29.7749C624.701 29.0724 623.854 28.9644 623.242 28.9644C621.747 28.9644 620.99 30.0451 620.702 30.7476C620.45 29.3606 619.477 28.9644 618.342 28.9644C616.595 28.9644 615.911 30.4594 615.767 30.8196H615.749V28.9644L613.299 29.1625V29.6849C614.524 29.6849 614.668 29.8109 614.668 30.6936V35.5749C614.668 36.3855 614.47 36.3855 613.299 36.3855V36.9078C613.767 36.8718 614.74 36.8718 615.244 36.8718C615.767 36.8718 616.739 36.8718 617.208 36.9078V36.3855C616.055 36.3855 615.839 36.3855 615.839 35.5749V32.2246C615.839 30.3333 617.081 29.3246 618.198 29.3246C619.315 29.3246 619.567 30.2432 619.567 31.342V35.5749C619.567 36.3855 619.369 36.3855 618.198 36.3855V36.9078C618.667 36.8718 619.639 36.8718 620.144 36.8718C620.666 36.8718 621.639 36.8718 622.107 36.9078V36.3855C620.954 36.3855 620.738 36.3855 620.738 35.5749V32.2246C620.738 30.3333 621.981 29.3246 623.098 29.3246C624.214 29.3246 624.467 30.2432 624.467 31.342V35.5749C624.467 36.3855 624.268 36.3855 623.098 36.3855V36.9078C623.566 36.8718 624.539 36.8718 625.043 36.8718C625.565 36.8718 626.538 36.8718 627.006 36.9078V36.3855C626.106 36.3855 625.655 36.3855 625.637 35.8451V32.5308Z" fill="white"/>
<path d="M635.688 33.0532C635.688 30.7295 633.923 28.8743 631.833 28.8743C629.672 28.8743 627.96 30.7836 627.96 33.0532C627.96 35.3588 629.762 37.0879 631.815 37.0879C633.941 37.0879 635.688 35.3227 635.688 33.0532ZM631.833 36.6917C631.167 36.6917 630.356 36.4035 629.834 35.5209C629.347 34.7103 629.329 33.6476 629.329 32.891C629.329 32.2066 629.329 31.1078 629.888 30.2973C630.392 29.5227 631.185 29.2345 631.815 29.2345C632.518 29.2345 633.274 29.5587 633.76 30.2612C634.319 31.0898 634.319 32.2246 634.319 32.891C634.319 33.5215 634.319 34.6383 633.851 35.4848C633.346 36.3494 632.518 36.6917 631.833 36.6917Z" fill="white"/>
<path d="M642.132 24.6054V25.1277C643.357 25.1277 643.501 25.2538 643.501 26.1364V30.1172C643.123 29.5948 642.348 28.9644 641.25 28.9644C639.16 28.9644 637.359 30.7296 637.359 33.0352C637.359 35.3228 639.07 37.088 641.051 37.088C642.42 37.088 643.213 36.1874 643.465 35.8451V37.088L646.005 36.9079V36.3855C644.78 36.3855 644.636 36.2594 644.636 35.3768V24.4072L642.132 24.6054ZM643.465 34.8004C643.465 35.1246 643.465 35.1787 643.213 35.5749C642.781 36.2054 642.042 36.7277 641.142 36.7277C640.673 36.7277 638.728 36.5476 638.728 33.0532C638.728 31.7563 638.944 31.0358 639.34 30.4414C639.701 29.883 640.421 29.3246 641.322 29.3246C642.438 29.3246 643.069 30.1352 643.249 30.4234C643.465 30.7296 643.465 30.7656 643.465 31.0898V34.8004Z" fill="white"/>
<path d="M660.331 33.8819H659.935C659.881 34.1881 659.737 35.1788 659.557 35.467C659.431 35.6291 658.404 35.6291 657.864 35.6291H654.531C655.018 35.2148 656.117 34.062 656.585 33.6297C659.323 31.108 660.331 30.1713 660.331 28.3881C660.331 26.3166 658.692 24.9297 656.603 24.9297C654.513 24.9297 653.289 26.7129 653.289 28.262C653.289 29.1806 654.081 29.1806 654.135 29.1806C654.513 29.1806 654.982 28.9104 654.982 28.334C654.982 27.8297 654.64 27.4875 654.135 27.4875C653.973 27.4875 653.937 27.4875 653.883 27.5055C654.225 26.2806 655.198 25.452 656.369 25.452C657.9 25.452 658.836 26.7309 658.836 28.3881C658.836 29.9191 657.954 31.2521 656.927 32.4049L653.289 36.4757V36.908H659.863L660.331 33.8819Z" fill="white"/>
<path d="M666.304 32.4227C666.304 31.0537 666.124 28.8202 665.115 26.7307C664.052 24.5692 662.575 23.3984 662.377 23.3984C662.305 23.3984 662.215 23.4345 662.215 23.5425C662.215 23.5966 662.215 23.6326 662.521 23.9388C664.322 25.7581 665.331 28.7301 665.331 32.4047C665.331 35.8991 664.484 38.9072 662.395 41.0326C662.215 41.1947 662.215 41.2308 662.215 41.2848C662.215 41.3929 662.305 41.4289 662.377 41.4289C662.611 41.4289 664.088 40.132 664.971 38.3668C665.889 36.5295 666.304 34.5842 666.304 32.4227Z" fill="white"/>
<path d="M675.544 32.4049C675.544 31.8825 675.112 31.4502 674.589 31.4502C674.067 31.4502 673.635 31.8825 673.635 32.4049C673.635 32.9272 674.067 33.3595 674.589 33.3595C675.112 33.3595 675.544 32.9272 675.544 32.4049Z" fill="white"/>
<path d="M686.946 41.2848C686.946 41.2308 686.946 41.1947 686.64 40.8885C684.839 39.0693 683.83 36.0972 683.83 32.4227C683.83 28.9283 684.677 25.9202 686.766 23.7947C686.946 23.6326 686.946 23.5966 686.946 23.5425C686.946 23.4345 686.856 23.3984 686.784 23.3984C686.55 23.3984 685.073 24.6953 684.19 26.4606C683.272 28.2798 682.857 30.2071 682.857 32.4227C682.857 34.0258 683.11 36.1693 684.046 38.0966C685.109 40.2581 686.586 41.4289 686.784 41.4289C686.856 41.4289 686.946 41.3929 686.946 41.2848Z" fill="white"/>
<path d="M691.661 31.6302C691.697 31.5221 692.148 30.6215 692.814 30.0451C693.282 29.6128 693.895 29.3246 694.597 29.3246C695.318 29.3246 695.57 29.865 695.57 30.5855C695.57 31.6122 694.831 33.6656 694.471 34.6383C694.309 35.0706 694.219 35.3047 694.219 35.629C694.219 36.4395 694.777 37.088 695.642 37.088C697.317 37.088 697.948 34.4401 697.948 34.3321C697.948 34.242 697.876 34.17 697.767 34.17C697.605 34.17 697.587 34.224 697.497 34.5302C697.083 36.0072 696.399 36.7277 695.696 36.7277C695.516 36.7277 695.228 36.7097 695.228 36.1333C695.228 35.683 695.426 35.1426 695.534 34.8905C695.894 33.8998 696.651 31.8824 696.651 30.8557C696.651 29.7749 696.02 28.9644 694.651 28.9644C693.048 28.9644 692.202 30.0991 691.877 30.5495C691.823 29.5227 691.085 28.9644 690.292 28.9644C689.716 28.9644 689.32 29.3066 689.013 29.919C688.689 30.5675 688.437 31.6482 688.437 31.7203C688.437 31.7923 688.509 31.8824 688.635 31.8824C688.779 31.8824 688.797 31.8644 688.905 31.4501C689.194 30.3513 689.518 29.3246 690.238 29.3246C690.653 29.3246 690.797 29.6128 690.797 30.1532C690.797 30.5495 690.617 31.2519 690.49 31.8103L689.986 33.7557C689.914 34.0979 689.716 34.9085 689.626 35.2327C689.5 35.701 689.302 36.5476 689.302 36.6377C689.302 36.8898 689.5 37.088 689.77 37.088C689.986 37.088 690.238 36.9799 690.382 36.7097C690.418 36.6196 690.58 35.9892 690.671 35.629L691.067 34.0078L691.661 31.6302Z" fill="white"/>
<path d="M714.352 32.7649C714.658 32.7649 714.982 32.7649 714.982 32.4047C714.982 32.0444 714.658 32.0444 714.352 32.0444H704.607C704.301 32.0444 703.977 32.0444 703.977 32.4047C703.977 32.7649 704.301 32.7649 704.607 32.7649H714.352Z" fill="white"/>
<path d="M728.419 33.8819H728.023C727.969 34.1881 727.825 35.1788 727.645 35.467C727.519 35.6291 726.492 35.6291 725.952 35.6291H722.619C723.106 35.2148 724.204 34.062 724.673 33.6297C727.411 31.108 728.419 30.1713 728.419 28.3881C728.419 26.3166 726.78 24.9297 724.691 24.9297C722.601 24.9297 721.376 26.7129 721.376 28.262C721.376 29.1806 722.169 29.1806 722.223 29.1806C722.601 29.1806 723.07 28.9104 723.07 28.334C723.07 27.8297 722.727 27.4875 722.223 27.4875C722.061 27.4875 722.025 27.4875 721.971 27.5055C722.313 26.2806 723.286 25.452 724.457 25.452C725.988 25.452 726.924 26.7309 726.924 28.3881C726.924 29.9191 726.042 31.2521 725.015 32.4049L721.376 36.4757V36.908H727.951L728.419 33.8819Z" fill="white"/>
<path d="M734.392 32.4227C734.392 31.0537 734.212 28.8202 733.203 26.7307C732.14 24.5692 730.663 23.3984 730.465 23.3984C730.393 23.3984 730.303 23.4345 730.303 23.5425C730.303 23.5966 730.303 23.6326 730.609 23.9388C732.411 25.7581 733.419 28.7301 733.419 32.4047C733.419 35.8991 732.573 38.9072 730.483 41.0326C730.303 41.1947 730.303 41.2308 730.303 41.2848C730.303 41.3929 730.393 41.4289 730.465 41.4289C730.699 41.4289 732.177 40.132 733.059 38.3668C733.978 36.5295 734.392 34.5842 734.392 32.4227Z" fill="white"/>
<path d="M739.486 24.8756C739.486 24.2992 738.999 24.0291 738.621 24.0291C738.243 24.0291 737.684 24.2812 737.739 25.0377L738.387 33.2875C738.405 33.5937 738.441 33.6657 738.603 33.6657C738.783 33.6657 738.819 33.6117 738.837 33.2875L739.486 24.8756ZM739.486 36.0253C739.486 35.557 739.089 35.1608 738.621 35.1608C738.117 35.1608 737.739 35.557 737.739 36.0434C737.739 36.5117 738.135 36.908 738.603 36.908C739.107 36.908 739.486 36.5117 739.486 36.0253Z" fill="white"/>
<path d="M746.15 32.4227C746.15 31.0537 745.97 28.8202 744.961 26.7307C743.898 24.5692 742.421 23.3984 742.223 23.3984C742.151 23.3984 742.061 23.4345 742.061 23.5425C742.061 23.5966 742.061 23.6326 742.367 23.9388C744.168 25.7581 745.177 28.7301 745.177 32.4047C745.177 35.8991 744.331 38.9072 742.241 41.0326C742.061 41.1947 742.061 41.2308 742.061 41.2848C742.061 41.3929 742.151 41.4289 742.223 41.4289C742.457 41.4289 743.934 40.132 744.817 38.3668C745.736 36.5295 746.15 34.5842 746.15 32.4227Z" fill="white"/>
<path d="M758.431 31.6839C758.431 20.6783 756.467 14.2298 755.909 12.4106C754.684 8.41182 752.685 4.1969 749.677 0.486337C749.406 0.162113 749.334 0.0720503 749.262 0.0360259C749.226 0.0180137 749.208 0 748.92 0C748.65 0 748.506 -2.24511e-08 748.506 0.180125C748.506 0.216149 748.506 0.252175 748.74 0.576399C755.008 9.33045 756.413 20.1379 756.431 32.3324C756.431 32.5845 756.539 32.5845 756.936 32.5845H757.926C758.305 32.5845 758.413 32.5845 758.431 32.3864V31.6839Z" fill="white"/>
<path d="M758.431 32.4227C758.413 32.2246 758.305 32.2246 757.926 32.2246H756.936C756.539 32.2246 756.431 32.2246 756.431 32.4768C756.431 34.3321 756.413 38.619 755.945 43.1041C754.972 52.4166 752.577 58.865 748.632 64.3948C748.506 64.557 748.506 64.593 748.506 64.629C748.506 64.8091 748.65 64.8091 748.92 64.8091C749.208 64.8091 749.244 64.8091 749.28 64.7731C749.352 64.7191 751.64 62.0893 753.459 58.4688C755.837 53.7135 757.332 48.2557 757.998 41.6992C758.052 41.1408 758.431 37.3942 758.431 33.1252V32.4227Z" fill="white"/>
</g>
<defs>
<filter id="filter0_d_184_41" x="0" y="0" width="762.431" height="72.8091" filterUnits="userSpaceOnUse" color-interpolation-filters="sRGB">
<feFlood flood-opacity="0" result="BackgroundImageFix"/>
<feColorMatrix in="SourceAlpha" type="matrix" values="0 0 0 0 0 0 0 0 0 0 0 0 0 0 0 0 0 0 127 0" result="hardAlpha"/>
<feOffset dy="4"/>
<feGaussianBlur stdDeviation="2"/>
<feComposite in2="hardAlpha" operator="out"/>
<feColorMatrix type="matrix" values="0 0 0 0 0 0 0 0 0 0 0 0 0 0 0 0 0 0 0.25 0"/>
<feBlend mode="normal" in2="BackgroundImageFix" result="effect1_dropShadow_184_41"/>
<feBlend mode="normal" in="SourceGraphic" in2="effect1_dropShadow_184_41" result="shape"/>
</filter>
<clipPath id="clip0_184_41">
<rect width="754.431" height="64.8091" fill="white" transform="translate(4)"/>
</clipPath>
</defs>
</svg>
